# xmcd
#
# Track frame offsets:
#	150
#	21024
#	40578
#	65406
#	83996
#	103985
#	123479
#	148641
#	168141
#	191019
#	217196
#	240629
#
# Disc length: 3453 seconds
#
# Revision: 11
# Processed by: cddbd v1.5.2PL0 Copyright (c) Steve Scherf et al.
# Submitted via: EasyCDDAExtractor 15.3.0.1
#
DISCID=a80d7b0c
DTITLE=Ricky Martin - MTV Unplugged
DYEAR=2006
DGENRE=Latin
TTITLE0=Gracias Por Pensar En Mi
TTITLE1=Con Tu Nombre
TTITLE2=Maria
TTITLE3=Tu Recuerdo (Featuring La Mari De Chambao Y Tommy Torres)
TTITLE4=Perdido Sin Ti
TTITLE5=Asignatura Pendiente
TTITLE6=Vuelve
TTITLE7=Lola, Lola
TTITLE8=Volveras
TTITLE9=La Bomba
TTITLE10=Fuego De Noche, Nieve De Dia
TTITLE11=Pegate
EXTD=YEAR: 2006
EXTT0=
EXTT1=
EXTT2=
EXTT3=
EXTT4=
EXTT5=
EXTT6=
EXTT7=
EXTT8=
EXTT9=
EXTT10=
EXTT11=
PLAYORDER=
